<svg width="25" height="22" viewBox="0 0 25 22" fill="none" xmlns="http://www.w3.org/2000/svg">
<path id="Vector" d="M10.6222 11.7669C11.8199 12.4339 12.4187 12.7666 13.0767 12.7673C13.7346 12.7673 14.3335 12.4353 15.5319 11.7713L23.1572 7.54494C23.502 7.35417 23.7146 7 23.7146 6.61699C23.7146 6.23398 23.502 5.87981 23.1572 5.68904L15.5296 1.46041C14.332 0.796431 13.7331 0.465179 13.0767 0.465179C12.4195 0.465179 11.8206 0.79791 10.6245 1.46263L4.06944 5.10122C4.01647 5.13079 3.98959 5.14558 3.96503 5.16037C1.72857 6.42475 0.347389 8.72798 0.32666 11.2257V11.4578C0.346622 13.9526 1.7255 16.2536 3.95812 17.5194L4.0633 17.5786L8.16155 19.8604C10.56 21.195 11.7592 21.8627 13.0767 21.8634C14.3934 21.8634 15.5934 21.1972 17.9926 19.8633L22.3242 17.4551C23.5235 16.7889 24.1231 16.4554 24.4524 15.9061C24.7818 15.3574 24.7818 14.6905 24.7818 13.3566V10.7732C24.781 10.4094 24.5799 10.0729 24.2528 9.89105C23.9258 9.70916 23.5227 9.70842 23.1949 9.88958L14.3012 14.8192C13.7032 15.1504 13.4045 15.316 13.0759 15.316C12.7481 15.316 12.4494 15.1511 11.8514 14.8199L5.83373 11.4889C5.53124 11.3218 5.38076 11.2375 5.25868 11.2227C4.98229 11.1887 4.71665 11.3373 4.61147 11.5858C4.56541 11.6952 4.56617 11.863 4.56848 12.1995C4.56925 12.4457 4.57001 12.5692 4.59458 12.683C4.64832 12.9366 4.78652 13.1666 4.98844 13.3367C5.07903 13.4136 5.19035 13.4749 5.41223 13.5984L11.8475 17.1801C12.4471 17.5143 12.7473 17.6806 13.0759 17.6806C13.406 17.6806 13.7055 17.5143 14.3051 17.1808L22.1929 12.7962C22.3979 12.6823 22.5 12.6261 22.5768 12.6682C22.6536 12.7111 22.6536 12.825 22.6536 13.0527V14.2232C22.6536 14.5567 22.6536 14.723 22.5714 14.8606C22.4893 14.9981 22.3396 15.0809 22.0394 15.248L15.535 18.8637C14.335 19.5306 13.7354 19.8641 13.0767 19.8633C12.418 19.8633 11.8176 19.5291 10.6191 18.8615L4.53546 15.4728L4.49247 15.4491C3.21801 14.7297 2.4326 13.4173 2.42415 11.9946V10.8708C2.42415 10.0848 2.85793 9.35869 3.56349 8.96385C4.18844 8.61485 4.95926 8.61411 5.58421 8.96237L10.623 11.7662L10.6222 11.7669Z" fill="#808080"/>
</svg>
