<svg width="23" height="23" viewBox="0 0 23 23" fill="none" xmlns="http://www.w3.org/2000/svg">
<path d="M11.6685 0C17.8367 0 22.8328 5.12239 22.8328 11.4467C22.8322 13.8451 22.098 16.1829 20.7336 18.131C19.3693 20.0792 17.4434 21.5396 15.2271 22.3067C14.6689 22.4212 14.4595 22.0635 14.4595 21.763C14.4595 21.3767 14.4735 20.1462 14.4735 18.6152C14.4735 17.542 14.1246 16.8552 13.7199 16.4975C16.2039 16.2114 18.8136 15.2384 18.8136 10.8457C18.8136 9.5866 18.381 8.57071 17.6693 7.76944C17.7809 7.48327 18.1717 6.30999 17.5576 4.73607C17.5576 4.73607 16.6226 4.42128 14.4874 5.90935C13.5943 5.6518 12.6453 5.52303 11.6964 5.52303C10.7474 5.52303 9.79843 5.6518 8.90529 5.90935C6.77011 4.43559 5.8351 4.73607 5.8351 4.73607C5.22107 6.30999 5.61182 7.48327 5.72346 7.76944C5.01174 8.57071 4.57912 9.60091 4.57912 10.8457C4.57912 15.2241 7.17482 16.2114 9.65888 16.4975C9.3379 16.7837 9.04484 17.2845 8.94715 18.0285C8.30521 18.329 6.70034 18.8155 5.69555 17.0842C5.48622 16.7408 4.85823 15.8966 3.97904 15.9109C3.04403 15.9252 3.60225 16.4546 3.993 16.6692C4.46748 16.9411 5.01174 17.957 5.13734 18.2861C5.36062 18.93 6.0863 20.1605 8.89133 19.6311C8.89133 20.5897 8.90529 21.4912 8.90529 21.763C8.90529 22.0635 8.69596 22.4069 8.13774 22.3067C5.91415 21.5479 3.98006 20.0904 2.60986 18.1411C1.23966 16.1917 0.502922 13.8495 0.504152 11.4467C0.504152 5.12239 5.50018 0 11.6685 0Z" fill="#808080"/>
</svg>
