<svg width="23" height="23" viewBox="0 0 23 23" fill="none" xmlns="http://www.w3.org/2000/svg">
<path fill-rule="evenodd" clip-rule="evenodd" d="M14.5312 0.0507606L2.17619 0.963246C1.1796 1.04958 0.832764 1.70083 0.832764 2.48157V16.0259C0.832764 16.634 1.0486 17.1543 1.5696 17.8494L4.47377 21.6259C4.95085 22.234 5.38477 22.3642 6.29576 22.321L20.6432 21.4525C21.8564 21.3661 22.204 20.8012 22.204 19.8463V4.60872C22.204 4.11526 22.009 3.97311 21.4351 3.55184C21.4021 3.52806 21.3691 3.50424 21.3361 3.48039L17.3929 0.702004C16.4388 0.00833681 16.0488 -0.079488 14.5312 0.0507606ZM6.62027 4.35939C5.44878 4.43828 5.18307 4.45614 4.51768 3.91505L2.82594 2.5694C2.65401 2.39524 2.74035 2.17791 3.17352 2.13474L15.0507 1.26691C16.048 1.17983 16.5675 1.52741 16.9575 1.83107L18.9946 3.30698C19.0817 3.35089 19.2983 3.61064 19.0378 3.61064L6.7721 4.34897L6.62027 4.35939ZM5.25452 19.7161V6.78052C5.25452 6.21562 5.42794 5.95512 5.94744 5.91121L20.0351 5.08655C20.513 5.04338 20.7288 5.34704 20.7288 5.91121V18.7604C20.7288 19.3253 20.6417 19.8032 19.8617 19.8463L6.38061 20.6278C5.60061 20.671 5.25452 20.4112 5.25452 19.7161ZM18.5622 7.47419C18.6485 7.86494 18.5622 8.25568 18.1715 8.30034L17.5217 8.4291V17.9797C16.9575 18.2833 16.438 18.4568 16.0041 18.4568C15.3105 18.4568 15.137 18.2394 14.6175 17.5889L10.3685 10.9038V17.3716L11.7126 17.676C11.7126 17.676 11.7126 18.4575 10.6282 18.4575L7.63844 18.6309C7.55136 18.4568 7.63844 18.0228 7.94136 17.9365L8.72211 17.7199V9.16817L7.63844 9.08034C7.55136 8.6896 7.76794 8.12543 8.37528 8.08152L11.5831 7.86568L16.0041 14.6371V8.64643L14.8773 8.51692C14.7902 8.03835 15.137 7.69077 15.5702 7.64835L18.5622 7.47419Z" fill="#808080"/>
</svg>
