<svg width="23" height="23" viewBox="0 0 23 23" fill="none" xmlns="http://www.w3.org/2000/svg">
<g id="Livello_1" clip-path="url(#clip0_1507_4762)">
<path id="Vector" d="M11.4032 22.3286C17.5691 22.3286 22.5675 17.3302 22.5675 11.1643C22.5675 4.99843 17.5691 0 11.4032 0C5.23732 0 0.238892 4.99843 0.238892 11.1643C0.238892 17.3302 5.23732 22.3286 11.4032 22.3286Z" fill="#808080"/>
<path id="Vector_2" d="M7.79614 11.9804L9.12069 15.6466C9.12069 15.6466 9.2863 15.9896 9.46362 15.9896C9.64095 15.9896 12.2784 13.2458 12.2784 13.2458L15.2114 7.58084L7.84341 11.0341L7.79614 11.9804Z" fill="#BABABA"/>
<path id="Vector_3" d="M9.55242 12.9206L9.29815 15.6229C9.29815 15.6229 9.19172 16.451 10.0196 15.6229C10.8474 14.7949 11.6398 14.1564 11.6398 14.1564" fill="#9D9D9D"/>
<path id="Vector_4" d="M7.81998 12.1112L5.09534 11.2235C5.09534 11.2235 4.76971 11.0914 4.87456 10.7918C4.89615 10.73 4.93969 10.6774 5.06994 10.5871C5.67365 10.1663 16.2441 6.367 16.2441 6.367C16.2441 6.367 16.5426 6.26643 16.7186 6.33332C16.7621 6.3468 16.8013 6.37161 16.8321 6.4052C16.8629 6.43879 16.8843 6.47997 16.894 6.52451C16.913 6.60319 16.9209 6.68413 16.9176 6.76501C16.9167 6.83497 16.9083 6.89982 16.9019 7.00151C16.8375 8.04025 14.9109 15.7927 14.9109 15.7927C14.9109 15.7927 14.7956 16.2464 14.3826 16.2619C14.2811 16.2652 14.18 16.248 14.0853 16.2114C13.9906 16.1747 13.9043 16.1194 13.8314 16.0487C13.021 15.3516 10.2198 13.4691 9.60087 13.0551C9.58691 13.0456 9.57516 13.0332 9.56639 13.0187C9.55763 13.0043 9.55207 12.9881 9.55008 12.9713C9.54143 12.9277 9.58887 12.8736 9.58887 12.8736C9.58887 12.8736 14.4664 8.53818 14.5962 8.08305C14.6062 8.04779 14.5682 8.03039 14.5173 8.04583C14.1933 8.16501 8.57748 11.7114 7.95768 12.1028C7.91306 12.1163 7.86591 12.1192 7.81998 12.1112Z" fill="#CACACA"/>
</g>
<defs>
<clipPath id="clip0_1507_4762">
<rect width="22.3286" height="22.3286" fill="white" transform="translate(0.238892)"/>
</clipPath>
</defs>
</svg>
